<svg id="Ebene_1" data-name="Ebene 1" xmlns="http://www.w3.org/2000/svg" viewBox="0 0 160 160"><title>01_Arbeit-Ruhestand</title><path d="M133.32,82.28H77.86a1.32,1.32,0,0,0-1.33,1.33v16.84a14.38,14.38,0,1,0,18.65,13.78h38.14a1.34,1.34,0,0,0,1.33-1.33V83.61A1.33,1.33,0,0,0,133.32,82.28ZM79.19,84.94H85.8A7.12,7.12,0,0,1,80,90.71l-.18,0-.58.08Zm13,26.62a11.32,11.32,0,0,1,.3,2.62v0h0a11.72,11.72,0,1,1-16-11l0,0a11.37,11.37,0,0,1,2.61-.67h0a11.46,11.46,0,0,1,1.56-.1A11.73,11.73,0,0,1,92.22,111.56Zm2.72,0A14.4,14.4,0,0,0,80.8,99.8a13.47,13.47,0,0,0-1.56.09V93.47c.33,0,.62-.06.9-.1l.2,0a9.78,9.78,0,0,0,8.15-8.4h34.19a9.66,9.66,0,0,0,8.14,8.4c.31,0,.7.11,1.11.14v9.32c-.37,0-.7.07-1,.11l-.19,0a9.71,9.71,0,0,0-8.17,8.62Zm37.05,0h-6.76a7,7,0,0,1,5.87-6l.18,0a6.71,6.71,0,0,1,.71-.08Zm0-20.76a7.38,7.38,0,0,1-.74-.1,7,7,0,0,1-5.87-5.77H132Z"/><path d="M82.13,111.07v6.23a1.33,1.33,0,0,1-2.66,0v-6.23a1.33,1.33,0,0,1,2.66,0Z"/><path d="M106.92,95.09v6.23a1.33,1.33,0,0,1-2.66,0V95.09a1.33,1.33,0,0,1,2.66,0Z"/><path d="M69.44,56.6v-8a17.17,17.17,0,1,0-34.34,0v8a10.23,10.23,0,0,0-9.75,10.21V100.2a10.24,10.24,0,0,0,10.22,10.23H57.45a1.34,1.34,0,0,0,0-2.67H35.57A7.57,7.57,0,0,1,28,100.2V66.81a7.57,7.57,0,0,1,7.56-7.56H69a7.57,7.57,0,0,1,7.56,7.56v6.42a1.33,1.33,0,0,0,2.66,0V66.81A10.23,10.23,0,0,0,69.44,56.6Zm-31.68-8a14.51,14.51,0,1,1,29,0v8h-29Z"/><path d="M57.45,95H47.09a1.34,1.34,0,0,1-1-.49,1.36,1.36,0,0,1-.28-1.1l2-10.2a6.51,6.51,0,1,1,9,0l2,10.2a1.36,1.36,0,0,1-.28,1.1A1.34,1.34,0,0,1,57.45,95Zm-8.74-2.67h7.12L54,83a1.36,1.36,0,0,1,.53-1.33,3.81,3.81,0,0,0,1.59-3.11A3.85,3.85,0,1,0,50,81.63,1.32,1.32,0,0,1,50.53,83Z"/></svg>