<svg id="Ebene_1" data-name="Ebene 1" xmlns="http://www.w3.org/2000/svg" viewBox="0 0 160 160"><title>02_Bauen-Wohnen</title><path d="M103.64,117.78a2,2,0,0,1-1.14-.35,61.9,61.9,0,0,1-10.08-7.9c-3.62-3.73-5.37-7.48-5.37-11.46v0a9.6,9.6,0,0,1,9.65-9.27,10.28,10.28,0,0,1,6.93,2.67,10.31,10.31,0,0,1,6.94-2.67A9.57,9.57,0,0,1,120.22,98v0c0,4-1.76,7.73-5.37,11.46a61.9,61.9,0,0,1-10.08,7.9A2,2,0,0,1,103.64,117.78Zm-.36-2.56h0Zm.71,0ZM96.7,91.43a6.93,6.93,0,0,0-7,6.66c0,3.24,1.51,6.38,4.62,9.59a58.54,58.54,0,0,0,9.3,7.3,58.19,58.19,0,0,0,9.31-7.3c3.11-3.21,4.62-6.35,4.62-9.61a6.93,6.93,0,0,0-7-6.64,7.31,7.31,0,0,0-5.86,2.8,1.34,1.34,0,0,1-1.08.54h0a1.33,1.33,0,0,1-1.07-.54A7.31,7.31,0,0,0,96.7,91.43Z"/><path d="M115.37,82a1.33,1.33,0,0,1-1-.39L78.24,45.43,42.05,81.62a1.33,1.33,0,1,1-1.88-1.89L77.3,42.61a1.33,1.33,0,0,1,1.88,0l37.13,37.12a1.34,1.34,0,0,1,0,1.89A1.33,1.33,0,0,1,115.37,82Z"/><path d="M85.56,117.78h-35a1.34,1.34,0,0,1-1.34-1.33V80.68a1.34,1.34,0,1,1,2.67,0v34.44H85.56a1.33,1.33,0,0,1,0,2.66Z"/><path d="M72.28,97.73H63.6a1.34,1.34,0,0,1-1.33-1.34V87.72a1.34,1.34,0,0,1,1.33-1.33h8.68a1.34,1.34,0,0,1,1.33,1.33v8.67A1.34,1.34,0,0,1,72.28,97.73Zm-7.34-2.67h6v-6h-6Z"/></svg>