<svg id="Ebene_1" data-name="Ebene 1" xmlns="http://www.w3.org/2000/svg" viewBox="0 0 160 160"><title>03_Bildung</title><path d="M112.35,35.64H81.67a13.29,13.29,0,0,0-7.91,2.3,8.77,8.77,0,0,0-1.42,1.3,9.21,9.21,0,0,0-1.42-1.3A13.3,13.3,0,0,0,63,35.64H32.28a2.28,2.28,0,0,0-2.22,2.26V95.6a2.29,2.29,0,0,0,2.26,2.26H63a11.89,11.89,0,0,1,5.19.91,3.16,3.16,0,0,1,1.89,2.66,2.27,2.27,0,0,0,4.52,0,3.14,3.14,0,0,1,1.89-2.66,11.81,11.81,0,0,1,5.18-.91h6.14a1.33,1.33,0,1,0,0-2.66H81.67a14.33,14.33,0,0,0-6.39,1.19,6.67,6.67,0,0,0-1.61,1.12V41.92a6.07,6.07,0,0,1,1.66-1.83,10.71,10.71,0,0,1,6.34-1.78H112V68.45a1.33,1.33,0,1,0,2.66,0V37.91A2.29,2.29,0,0,0,112.35,35.64ZM71,97.51a6.73,6.73,0,0,0-1.62-1.12A14.3,14.3,0,0,0,63,95.2H32.73V38.31H63a10.62,10.62,0,0,1,6.34,1.78A6.22,6.22,0,0,1,71,41.92Z"/><path d="M125.19,82.27a17,17,0,0,0-13.1-4.75c-8.84.59-15.64,7.74-15.47,16.26a15.72,15.72,0,0,0,4,10.13,13,13,0,0,1,3.6,8.31,2,2,0,0,0,1.66,1.94v4.16a1.34,1.34,0,0,0,1.33,1.34h1.19a4.87,4.87,0,0,0,9.74,0h1.19a1.34,1.34,0,0,0,1.33-1.34v-4.15a2,2,0,0,0,1.66-1.94V112a12.63,12.63,0,0,1,3.51-8,15.41,15.41,0,0,0,4.08-9.77A15.71,15.71,0,0,0,125.19,82.27Zm-11.91,39.42a2.21,2.21,0,0,1-2.2-2h4.4A2.21,2.21,0,0,1,113.28,121.69ZM118,117h-9.44v-2.75H118Zm-6-5.45-2.7-13.23a18.26,18.26,0,0,0,3.93.06,11,11,0,0,0,3.76-1l-2.77,14.21ZM127.26,94.1a12.88,12.88,0,0,1-3.39,8.1,15.39,15.39,0,0,0-4.19,9.34H117l3.29-16.84A1.34,1.34,0,0,0,118,93.5a8.89,8.89,0,0,1-5,2.22,12.76,12.76,0,0,1-4.94-.38,1.36,1.36,0,0,0-1.34.23,1.38,1.38,0,0,0-.44,1.28l3,14.69h-2.43a15.87,15.87,0,0,0-4.25-9.41,13,13,0,0,1-3.34-8.4c-.14-7.1,5.56-13,13-13.55a14.36,14.36,0,0,1,11,4A13.06,13.06,0,0,1,127.26,94.1Z"/></svg>