<svg id="Ebene_1" data-name="Ebene 1" xmlns="http://www.w3.org/2000/svg" viewBox="0 0 160 160"><title>04_Ein-Auswanderung</title><path d="M83,44.05a17,17,0,0,0-4.49-7.92,23.8,23.8,0,0,0-4.06-3.43,17.15,17.15,0,0,0-4.09-2.08,14.28,14.28,0,0,0-3.54-.72h0a14.21,14.21,0,0,1,3.53.72,17.09,17.09,0,0,1,4.08,2.08,23.49,23.49,0,0,1,4.07,3.43A16.93,16.93,0,0,1,83,44.05a11.31,11.31,0,0,1,.29,1.56.1.1,0,0,1,0,0A13.88,13.88,0,0,0,83,44.05ZM66,27.29l.64-.05h0Z"/><path d="M85.63,43.41a19.66,19.66,0,0,0-5.15-9.13A26,26,0,0,0,76,30.49a20.28,20.28,0,0,0-4.71-2.39,16.61,16.61,0,0,0-4.36-.87h0a16.45,16.45,0,0,1,4.36.87A20.15,20.15,0,0,1,76,30.49a26.28,26.28,0,0,1,4.49,3.79,18.94,18.94,0,0,1,5.26,17.39v0A19.68,19.68,0,0,0,85.63,43.41ZM66.35,29.94l.5,0h0Z"/><path d="M85.89,51.88l-.12-.14,0-.05v0a18.94,18.94,0,0,0-5.26-17.39A26.28,26.28,0,0,0,76,30.49a20.15,20.15,0,0,0-4.72-2.39,16.45,16.45,0,0,0-4.36-.87h-.2l-.64.05h-1c-.42,0-.83,0-1.24,0a17.75,17.75,0,0,0-7.91,2.34,14.72,14.72,0,0,0-4.67,3.92,9.59,9.59,0,0,0-3.8,2.89c-2.56,3.25-3.35,8.37-2.36,15.2l0,.05,0,0-.09.14c-2,2.6-1.25,6.4-.5,9l0,.17c.47,1.58,1.34,4.5,3.16,6.37C49,72.39,53.06,79,60.24,81.6a14.35,14.35,0,0,0,5.21.89,15.51,15.51,0,0,0,5.11-.88c7.18-2.48,11.27-9.12,12.6-14.1C85,65.66,86,62.62,86.38,60.94,87.21,57.91,87.79,54.46,85.89,51.88ZM65.09,30c.38,0,.8,0,1.26,0l.49,0h0a14.28,14.28,0,0,1,3.54.72,17.15,17.15,0,0,1,4.09,2.08,23.8,23.8,0,0,1,4.06,3.43A17,17,0,0,1,83,44.05a13.88,13.88,0,0,1,.3,1.61.1.1,0,0,0,0,0c-1.51-2.56-3.88-5-7.46-5.07h-.47a17.76,17.76,0,0,0-4.56.64,14.82,14.82,0,0,1-5.54.5,10.75,10.75,0,0,1-3.22-.59c-1-.39-1.92-.63-6.2-.63A9.59,9.59,0,0,0,47.42,45a12,12,0,0,1,2.16-6.84A7.14,7.14,0,0,1,52.44,36l.24-.1a1.55,1.55,0,0,0,.55-.44l.15-.2A11.82,11.82,0,0,1,57.26,32,15.22,15.22,0,0,1,64,30C64.37,30,64.73,30,65.09,30ZM83.81,60.25l0,0v0a11.4,11.4,0,0,1-2.55,5.35l-.2.18a1.29,1.29,0,0,0-.36.63l-.07.26c-1.14,4.35-4.68,10.2-10.93,12.35a12.85,12.85,0,0,1-4.23.73,11.88,11.88,0,0,1-4.27-.71c-6.29-2.31-9.83-8.12-11-12.38l-.07-.25a1.44,1.44,0,0,0-.34-.6l-.18-.18c-1.4-1.39-2.16-4-2.57-5.32L47,60.23c-.33-1.2-1.36-4.86.08-6.7l.06-.07.08-.12.24-.25A1.34,1.34,0,0,0,47.85,52l0-.21a13.49,13.49,0,0,1,1.32-4.4,7.13,7.13,0,0,1,6.72-4.22c4,0,4.61.21,5.29.46a12.81,12.81,0,0,0,3.89.75,17.33,17.33,0,0,0,6.41-.57,15.13,15.13,0,0,1,4.33-.56c4.94.13,6.91,7.46,7.22,8.76a1.19,1.19,0,0,0,.14.52l.13.28a3.69,3.69,0,0,0,.53.76C85,55.19,84.46,57.86,83.81,60.25Z"/><path d="M78.54,111.86H29.91a1.33,1.33,0,0,1-1.33-1.2,1.29,1.29,0,0,1,0-.48c4.21-23.27,12.92-28.7,17.11-31.31.5-.31.93-.58,1.26-.82a1.37,1.37,0,0,1,1.11-.22,1.33,1.33,0,0,1,.87.72,18.77,18.77,0,0,0,16.57,9.81c11.71,0,17.06-9.76,17.11-9.86a1.33,1.33,0,0,1,.88-.67,1.3,1.3,0,0,1,1.08.22c.34.24.77.51,1.26.82a27.19,27.19,0,0,1,6.62,5.42,1.33,1.33,0,0,1-2,1.76,24.91,24.91,0,0,0-6-4.92L84.23,81a22.56,22.56,0,0,1-18.7,10A21.3,21.3,0,0,1,47.31,81l-.18.12c-4.07,2.53-11.56,7.21-15.63,28.06h47a1.34,1.34,0,0,1,0,2.67Z"/><path d="M94.83,93.2l-.26.22A1.09,1.09,0,0,1,94.83,93.2Z"/><path d="M109.07,88.06h-.19a22.27,22.27,0,0,0-14,5.14l-.26.22a22.32,22.32,0,0,0-7.85,16.44V111a22.26,22.26,0,0,0,7.53,16.15c.4.36.82.71,1.25,1a22.14,22.14,0,0,0,13.38,4.61h.38A22.26,22.26,0,0,0,123,127.9c.25-.2.49-.4.74-.62a22.34,22.34,0,0,0-14.66-39.22Zm19.65,21h-9.56a44.81,44.81,0,0,0-1.46-10.51,23.3,23.3,0,0,0,4.89-2.45A19.59,19.59,0,0,1,128.72,109.08Zm-8.3-14.74A20.84,20.84,0,0,1,116.89,96c-.13-.34-.25-.67-.39-1a18,18,0,0,0-1.9-3.52A19.16,19.16,0,0,1,120.42,94.34Zm-18.77,14.74a41.5,41.5,0,0,1,1.36-9.8,24.92,24.92,0,0,0,6.18.78,25.25,25.25,0,0,0,6-.72,41.18,41.18,0,0,1,1.34,9.74Zm14.84,2.67a41.38,41.38,0,0,1-1.42,10,25.63,25.63,0,0,0-5.88-.69,24.8,24.8,0,0,0-6.1.75,41.35,41.35,0,0,1-1.44-10.1Zm-7.42-21c1.86,0,3.82,2.24,5.26,6.06a22,22,0,0,1-5.14.6,22.22,22.22,0,0,1-5.36-.65C105.27,93,107.23,90.73,109.07,90.73Zm-5.53.79a18,18,0,0,0-1.9,3.52c-.12.29-.24.6-.36.91a20.82,20.82,0,0,1-3.45-1.69A19.31,19.31,0,0,1,103.54,91.52ZM95.65,96a23.24,23.24,0,0,0,4.81,2.47A44.38,44.38,0,0,0,99,109.08H89.43A19.62,19.62,0,0,1,95.65,96Zm-6.22,15.73H99a43.83,43.83,0,0,0,1.56,10.88,23,23,0,0,0-4.7,2.37A19.67,19.67,0,0,1,89.43,111.75Zm8.65,15a20.18,20.18,0,0,1,3.31-1.59c.08.22.16.43.25.64a18.65,18.65,0,0,0,1.9,3.52A19.81,19.81,0,0,1,98.08,126.75Zm11,3.36c-1.8,0-3.7-2.11-5.13-5.73a22.38,22.38,0,0,1,5.25-.62,22.75,22.75,0,0,1,5,.57C112.79,128,110.88,130.11,109.07,130.11Zm5.53-.79a18.65,18.65,0,0,0,1.9-3.52l.29-.71a21.26,21.26,0,0,1,3.38,1.58A19.57,19.57,0,0,1,114.6,129.32Zm7.79-4.41a23.28,23.28,0,0,0-4.77-2.36,44.21,44.21,0,0,0,1.54-10.8h9.56A19.66,19.66,0,0,1,122.39,124.91Z"/></svg>