<svg id="Ebene_1" data-name="Ebene 1" xmlns="http://www.w3.org/2000/svg" viewBox="0 0 160 160"><title>05_Engagement-Hobby</title><path d="M110.79,102.75l0,0c-1.63-2.65-5-2.79-7.71-1.75l-11.51,4a6.1,6.1,0,0,0-6-4.81H74.91C70.81,96.37,65.1,94,58.37,93.3a43.39,43.39,0,0,0-7.14-.14,4.1,4.1,0,0,0-3.86-2.73H35.2A2.28,2.28,0,0,0,33,92.15a37.09,37.09,0,0,0,5.09,28.13,2.26,2.26,0,0,0,1.86,1h7.24A4.31,4.31,0,0,0,50.4,120a4.22,4.22,0,0,0,1.05-2.46c5.87,2,16.52,5.54,20.75,6.61a14.65,14.65,0,0,0,3.64.43A24.86,24.86,0,0,0,86,122l.94-.5c17.73-9.43,20.24-10.82,20.6-11.05l.08,0a11.14,11.14,0,0,0,2.59-2.16A4.61,4.61,0,0,0,110.79,102.75ZM48.44,118.14a1.65,1.65,0,0,1-1.26.44h-7a34.24,34.24,0,0,1-3.55-7.47,32.51,32.51,0,0,1-1.08-18H47.37a1.45,1.45,0,0,1,1.41,1.19,1.32,1.32,0,0,0-.06.39v21.94a1.38,1.38,0,0,0,.08.45h0A1.61,1.61,0,0,1,48.44,118.14Zm59.74-11.57a8.49,8.49,0,0,1-2,1.6h0l-.07,0c-.38.24-4.22,2.33-20.41,10.93l-.92.49a22.34,22.34,0,0,1-9,2.23,12.38,12.38,0,0,1-3-.35c-4.36-1.11-15.9-5-21.47-6.87V95.82a40.25,40.25,0,0,1,6.71.13c6.36.67,11.67,2.91,15.37,6.47a1.33,1.33,0,0,0,.92.37H85.57A3.45,3.45,0,0,1,89,106.23c0,.1,0,.21,0,.31h0a1.24,1.24,0,0,0,0,.27,1.54,1.54,0,0,1-1.59,1.49h-19a1.34,1.34,0,0,0,0,2.67h19a4.24,4.24,0,0,0,4.14-3.2l12.42-4.31.06,0c.13,0,3.33-1.28,4.51.68l0,0A2,2,0,0,1,108.18,106.57Z"/><path d="M125.93,48a35.15,35.15,0,0,0-4-8.31,2.26,2.26,0,0,0-1.86-1h-7.24a4.27,4.27,0,0,0-3.21,1.3,4.18,4.18,0,0,0-1.06,2.46C102.68,40.53,92,37,87.8,35.9a14.65,14.65,0,0,0-3.64-.43A24.86,24.86,0,0,0,74,38l-.94.5c-17.73,9.43-20.24,10.82-20.6,11l-.08.05a10.6,10.6,0,0,0-2.59,2.15,4.59,4.59,0,0,0-.54,5.51l0,0c1.63,2.65,5,2.79,7.71,1.75l11.51-4a6.1,6.1,0,0,0,6,4.81H85.09c4.1,3.76,9.81,6.12,16.54,6.83a43.39,43.39,0,0,0,7.14.14,4.1,4.1,0,0,0,3.86,2.73H124.8A2.28,2.28,0,0,0,127,67.85,35.1,35.1,0,0,0,125.93,48Zm-24,16c-6.36-.67-11.67-2.91-15.37-6.47a1.33,1.33,0,0,0-.92-.37H74.44A3.45,3.45,0,0,1,71,53.77a2.83,2.83,0,0,1,0-.3h0a1.24,1.24,0,0,0,0-.27,1.54,1.54,0,0,1,1.59-1.49h19a1.34,1.34,0,0,0,0-2.67h-19a4.24,4.24,0,0,0-4.14,3.2L56.07,56.54l0,0c-.14,0-3.34,1.28-4.52-.68l0,0a2,2,0,0,1,.34-2.41,8.49,8.49,0,0,1,2-1.6h0l.07,0c.38-.24,4.23-2.33,20.41-10.93l.92-.49a22.34,22.34,0,0,1,9-2.23,12.38,12.38,0,0,1,3,.35c4.36,1.11,15.89,5,21.47,6.87V64.18A40.24,40.24,0,0,1,101.91,64.05Zm22.58,2.86H112.63a1.45,1.45,0,0,1-1.41-1.19,1.32,1.32,0,0,0,.06-.39V43.39a1.33,1.33,0,0,0-.08-.45h0a1.61,1.61,0,0,1,.36-1.07,1.65,1.65,0,0,1,1.26-.44h7a34.56,34.56,0,0,1,3.56,7.47A32.62,32.62,0,0,1,124.49,66.91Z"/><path d="M80.68,91a1.76,1.76,0,0,1-1-.32A44.52,44.52,0,0,1,72.41,85c-2.64-2.73-3.93-5.49-3.93-8.43v0a7.22,7.22,0,0,1,7.26-7,7.74,7.74,0,0,1,4.94,1.78,7.74,7.74,0,0,1,4.94-1.78,7.22,7.22,0,0,1,7.27,7v0c0,2.94-1.29,5.7-3.94,8.43a45,45,0,0,1-7.24,5.69A1.83,1.83,0,0,1,80.68,91Zm-.46-2.52h0Zm.92,0h0ZM75.74,72.2a4.57,4.57,0,0,0-4.6,4.37c0,2.2,1,4.35,3.19,6.56a40.34,40.34,0,0,0,6.35,5,40.44,40.44,0,0,0,6.36-5c2.14-2.21,3.18-4.36,3.18-6.58a4.56,4.56,0,0,0-4.6-4.35A4.83,4.83,0,0,0,81.76,74a1.35,1.35,0,0,1-1.08.54A1.33,1.33,0,0,1,79.61,74,4.85,4.85,0,0,0,75.74,72.2Z"/></svg>