<svg id="Ebene_1" data-name="Ebene 1" xmlns="http://www.w3.org/2000/svg" viewBox="0 0 160 160"><title>06_Familie-Kind</title><path d="M125.07,99.17a1.34,1.34,0,0,0-1.82.49,21.77,21.77,0,0,1-5,5.74,1.13,1.13,0,0,0-.1-.13L106.85,91.64a20.94,20.94,0,0,0,.22-18.44l12.35,8.35a1.37,1.37,0,0,0,.74.23,1.32,1.32,0,0,0,1.11-.59,1.34,1.34,0,0,0-.36-1.85l-19.22-13c-6.26-4.49-15.84-4.24-22.28-3.39L67.91,41.31a1.35,1.35,0,0,0-1.77-.57L35.1,56a1.32,1.32,0,0,0-.72.93,9.46,9.46,0,0,0,1.65,7c1.94,2.66,5.3,4.26,10,4.75a29,29,0,0,0,9.8-.81l3,19.64-16.91,18A22.3,22.3,0,0,1,37,100a1.32,1.32,0,0,0-1.82-.45,1.34,1.34,0,0,0-.46,1.83,25.77,25.77,0,0,0,6.38,7l.13.1c8.8,6.78,23.11,11,38.82,11,20.94,0,39.24-7.39,45.54-18.4A1.33,1.33,0,0,0,125.07,99.17Zm-29.9-33-4.6,8.46H85.75l-4.82-9.17C85.19,65,90.57,64.85,95.17,66.18Zm-29-22.48L76.63,63.38c-1.24.22-2.25.44-2.94.6L63.61,45Zm41.17,68.11A73.33,73.33,0,0,1,80,116.73a73.59,73.59,0,0,1-27-4.82c-.42-.16-.83-.33-1.24-.51L73.49,92.83H86.56l22.79,18.11C108.69,111.24,108,111.53,107.33,111.81Zm4.66-2.18L87.86,90.45a1.33,1.33,0,0,0-.83-.29H73a1.34,1.34,0,0,0-.87.32L49.07,110.16a39.17,39.17,0,0,1-5.11-3l17.18-18.3a1.37,1.37,0,0,0,.34-1.11L58.2,65.92a1.34,1.34,0,0,0-1.76-1.06A26.43,26.43,0,0,1,46.27,66c-3.87-.41-6.58-1.63-8.07-3.64A6.82,6.82,0,0,1,36.93,58L61.21,46.13l10.61,20a1.34,1.34,0,0,0,1.53.66c.06,0,1.94-.51,4.77-1l5.64,10.74a1.33,1.33,0,0,0,1.18.71h6.42a1.35,1.35,0,0,0,1.17-.69L97.7,67.1A13.73,13.73,0,0,1,100,68.37l.21.14A11.59,11.59,0,0,1,103,71.35a18.38,18.38,0,0,1,1.16,19.73,1.36,1.36,0,0,0,.11,1.57L116.16,107l0,.06A38.24,38.24,0,0,1,112,109.63Z"/><path d="M100.16,68.51l-.15-.09-.06,0Z"/><circle cx="55.83" cy="55.52" r="1.34"/></svg>