<svg id="Ebene_1" data-name="Ebene 1" xmlns="http://www.w3.org/2000/svg" viewBox="0 0 160 160"><title>07_Forschung-Foerderung</title><path d="M102.11,52.2V34.29H104a1.34,1.34,0,1,0,0-2.67H87.36a1.34,1.34,0,0,0,0,2.67h1.89V52.2a21.33,21.33,0,1,0,12.86,0Zm-6.43,39a18.67,18.67,0,0,1-4.76-36.72,1.32,1.32,0,0,0,1-1.29V34.29h7.54V53.2a1.33,1.33,0,0,0,1,1.29,18.67,18.67,0,0,1-4.76,36.72Z"/><path d="M95.68,88A15.44,15.44,0,0,1,80.26,72.54a1.33,1.33,0,0,1,1.33-1.33h28.18a1.34,1.34,0,0,1,1.34,1.33A15.45,15.45,0,0,1,95.68,88ZM83,73.88a12.76,12.76,0,0,0,25.38,0Z"/><path d="M120.57,105.8a.1.1,0,0,1,0,0c-1.68-2.73-5.2-2.87-8-1.79l-12,4.17a6.31,6.31,0,0,0-6.17-5H83.27C79,99.19,73.08,96.74,66.08,96a44,44,0,0,0-7.46-.14,4.2,4.2,0,0,0-4-2.85H42a2.31,2.31,0,0,0-2.25,1.76,36.48,36.48,0,0,0,1.11,20.59A37,37,0,0,0,45,124a2.31,2.31,0,0,0,1.89,1h7.53a4.46,4.46,0,0,0,3.31-1.33A4.31,4.31,0,0,0,58.84,121c6.09,2.07,17.24,5.79,21.64,6.9a15.36,15.36,0,0,0,3.78.45,25.68,25.68,0,0,0,10.55-2.61h0l1-.53c18.43-9.8,21-11.24,21.41-11.47l.08-.06a10.88,10.88,0,0,0,2.68-2.23A4.73,4.73,0,0,0,120.57,105.8Zm-64.78,16a1.76,1.76,0,0,1-1.35.47H47.1a35.08,35.08,0,0,1-3.73-7.81,34,34,0,0,1-1.11-18.82H54.64A1.55,1.55,0,0,1,56.16,97a1.34,1.34,0,0,0-.06.4v22.82a1.18,1.18,0,0,0,.09.46s0,0,0,0A1.79,1.79,0,0,1,55.79,121.83Zm62.15-12a8.66,8.66,0,0,1-2,1.67l0,0-.07,0c-.39.24-4.38,2.4-21.22,11.36l-1,.52a23.25,23.25,0,0,1-9.34,2.32,12.89,12.89,0,0,1-3.12-.37c-4.55-1.16-16.59-5.19-22.37-7.16V98.52a41.92,41.92,0,0,1,7,.13c6.62.7,12.17,3,16,6.74a1.34,1.34,0,0,0,.92.38H94.38A3.64,3.64,0,0,1,98,109.4c0,.11,0,.22,0,.33h0a1.24,1.24,0,0,0,0,.27,1.66,1.66,0,0,1-1.71,1.61H76.49a1.33,1.33,0,1,0,0,2.66H96.25a4.37,4.37,0,0,0,4.27-3.32l13-4.49h0c.14-.06,3.51-1.36,4.76.73l0,0A2.09,2.09,0,0,1,117.94,109.78Z"/></svg>