<svg id="Ebene_1" data-name="Ebene 1" xmlns="http://www.w3.org/2000/svg" viewBox="0 0 160 160"><title>08_Gesundheit</title><path d="M79.86,113.69a3,3,0,0,1-1.68-.52C71.43,108.62,64.05,102,58.13,96.61a1.33,1.33,0,1,1,1.78-2c5.87,5.3,13.16,11.89,19.76,16.33a.32.32,0,0,0,.37,0c6.6-4.44,13.9-11,19.76-16.33a1.33,1.33,0,0,1,1.79,2c-5.93,5.35-13.3,12-20,16.56A3,3,0,0,1,79.86,113.69Zm35.66-38.54a1.24,1.24,0,0,1-.33,0,1.34,1.34,0,0,1-1-1.62,27,27,0,0,0,.86-6.73v0A18.46,18.46,0,0,0,96.48,49a19.46,19.46,0,0,0-15.55,7.45,1.34,1.34,0,0,1-1.07.55,1.36,1.36,0,0,1-1.08-.55A19.44,19.44,0,0,0,63.24,49c-8.8,0-18.42,6.79-18.61,17.78h0a27,27,0,0,0,.85,6.73,1.33,1.33,0,0,1-2.58.66A29.89,29.89,0,0,1,42,66.76v0A21.15,21.15,0,0,1,63.24,46.31a22.47,22.47,0,0,1,16.62,7.22,22.43,22.43,0,0,1,16.62-7.22,21.09,21.09,0,0,1,21.27,20.4v.05a29.42,29.42,0,0,1-.94,7.39A1.32,1.32,0,0,1,115.52,75.15Z"/><path d="M91.53,95h-.12a1.33,1.33,0,0,1-1.13-.86L81.74,71.44,75,89.85a1.33,1.33,0,0,1-2.36.28l-6.46-9.89-3.77,5.47a1.34,1.34,0,0,1-1.1.58H40a1.34,1.34,0,0,1,0-2.67H60.64l4.5-6.53a1.35,1.35,0,0,1,2.22,0l6.08,9.32,7-19.29a1.33,1.33,0,0,1,2.5,0L91.8,90.59l3.74-6.31a1.33,1.33,0,0,1,1.15-.66H120a1.34,1.34,0,0,1,0,2.67H97.45l-4.78,8A1.32,1.32,0,0,1,91.53,95Z"/></svg>