<svg id="Ebene_1" data-name="Ebene 1" xmlns="http://www.w3.org/2000/svg" viewBox="0 0 160 160"><title>09_Mobilitaet-Reisen</title><path d="M93.92,72.34a1.34,1.34,0,0,1-.72.45Z"/><path d="M105.44,65.22a1.32,1.32,0,0,1-.48.29Z"/><path d="M97.44,51.56a40.31,40.31,0,0,0-41.3-9.78l-.6.2A40.29,40.29,0,0,0,80,118.74c.28-.07.55-.15.82-.24a40.14,40.14,0,0,0,14.29-7.85,1.33,1.33,0,1,0-1.73-2A37.28,37.28,0,0,1,80,115.94C76.36,114.13,55,103.09,47.91,89c-3.35-6.69.5-11.21,5.84-17.47A73.11,73.11,0,0,0,61,61.85c5.44-9.06,1-15.34-2-18.18a37.68,37.68,0,0,1,36.49,9.77,1.33,1.33,0,0,0,1.88-1.88ZM58.73,60.48a69.65,69.65,0,0,1-7,9.27C46.41,76,41.39,81.88,45.52,90.14,48.94,97,55.7,103.86,65.61,110.58a118.09,118.09,0,0,0,10.51,6.35,37.63,37.63,0,0,1-20-72.32C58,46.05,64.1,51.52,58.73,60.48Z"/><path d="M131.31,62.79a10.63,10.63,0,0,0-3.73-5.14l-.35-.24a11,11,0,0,0-2.47-1.24,14,14,0,0,0-11.39,1h0l-9.09,5.62L81.7,56.54c-.65-.23-4.26-1.41-5.86.73a3.6,3.6,0,0,0-.79,2.89,3.88,3.88,0,0,0,1.64,2.38l13.66,8.88L76.77,79.81l-5.3-2.08c-1.78-.74-5.54-1.31-7.22,1.76a4.75,4.75,0,0,0,1,6.21.18.18,0,0,0,.07,0l7.72,5.15a13.4,13.4,0,0,0,7.08,2.43,13,13,0,0,0,7.18-2l12.31-7.6L101,100.53a4.33,4.33,0,0,0,1,3,3.76,3.76,0,0,0,2.91,1.16c2.59,0,3.75-2.45,4-3.76L115,74.13l15.78-9.77A1.32,1.32,0,0,0,131.31,62.79ZM78.14,60.3a1.2,1.2,0,0,1-.47-.64,1.15,1.15,0,0,1,.3-.79c.25-.34,1.69-.24,2.85.19l.06,0,20.3,5.64-8.33,5.14Zm35,11.86a1.36,1.36,0,0,0-.6.84l-6.19,27.35a.1.1,0,0,1,0,0S106,102,104.9,102a1.27,1.27,0,0,1-.94-.29,1.63,1.63,0,0,1-.31-1.1v-.23L102.1,81.31a1.33,1.33,0,0,0-.73-1.08,1.34,1.34,0,0,0-1.3.06L85.88,89.06l-.09.06a10.46,10.46,0,0,1-5.66,1.55,10.77,10.77,0,0,1-5.53-1.94l0,0-7.7-5.13a2.12,2.12,0,0,1-.26-2.8c1-1.74,3.84-.58,3.86-.57h0l5.94,2.32a1.33,1.33,0,0,0,1.18-.11l15.6-9.63.72-.45,11-6.83.48-.29,9.31-5.76a11.44,11.44,0,0,1,9.11-.79l.1,0-3.38,2.1A1.33,1.33,0,0,0,122,63.07l4.55-2.83a8,8,0,0,1,1.85,2.45Z"/><path d="M127.58,57.65l-.35-.24A1.21,1.21,0,0,1,127.58,57.65Z"/><path d="M56.14,41.78l-.6.2A1.3,1.3,0,0,1,56.14,41.78Z"/><path d="M80.77,118.5a1.36,1.36,0,0,1-.77.25h0C80.23,118.67,80.5,118.59,80.77,118.5Z"/></svg>