<svg id="Ebene_1" data-name="Ebene 1" xmlns="http://www.w3.org/2000/svg" viewBox="0 0 160 160"><title>10_Querschnitt</title><path d="M81.54,108.78H36.42a1.33,1.33,0,0,1-1.33-1.2,1.47,1.47,0,0,1,0-.47c4.07-22.5,12.5-27.75,16.55-30.28.48-.29.89-.55,1.21-.79A1.33,1.33,0,0,1,54,75.83a1.39,1.39,0,0,1,.88.71A18,18,0,0,0,70.82,86c11.29,0,16.44-9.41,16.49-9.5a1.35,1.35,0,0,1,.88-.68,1.38,1.38,0,0,1,1.08.22c.32.24.74.5,1.21.79a26.14,26.14,0,0,1,6.4,5.25A1.32,1.32,0,0,1,96.76,84a1.34,1.34,0,0,1-1.88-.12,23.77,23.77,0,0,0-5.81-4.74L88.9,79a21.83,21.83,0,0,1-18.08,9.68A20.59,20.59,0,0,1,53.22,79l-.14.09C49.16,81.54,41.94,86,38,106.12H81.54a1.33,1.33,0,0,1,0,2.66Z"/><path d="M57.92,66.55h0l0,0Zm-3.51-.45,0,0h0A.08.08,0,0,1,54.41,66.1Z"/><path d="M57.92,66.55h0l0,0Z"/><path d="M95.63,41.53c-2.16-5.87-6.13-10.59-10.89-13-5.54-2.75-12.12-1.27-13.8-.81-1.69-.46-8.26-1.94-13.8.81-4.74,2.35-8.67,7.06-10.78,12.92S44.2,53.3,46.18,58.05c2.29,5.51,1.73,9.17,1.73,9.2a1.33,1.33,0,0,0,1.31,1.56H56.1A17.48,17.48,0,0,0,66.56,79.73a12.54,12.54,0,0,0,4.4.72,13.61,13.61,0,0,0,4.31-.71A17.07,17.07,0,0,0,85.76,68.81h6.89a1.36,1.36,0,0,0,1.15-.59A1.3,1.3,0,0,0,93.89,67c-.07-.22-.87-3,1.79-8.88C97.8,53.42,97.77,47.38,95.63,41.53ZM86,62.32v.07a9.14,9.14,0,0,1-2,4.11l0,0,0,0-.14.13a1.3,1.3,0,0,0-.38.62l-.06.22a14.39,14.39,0,0,1-8.94,9.71,11.21,11.21,0,0,1-3.47.57,10,10,0,0,1-3.5-.57,14.71,14.71,0,0,1-9-9.73l-.06-.19a1.36,1.36,0,0,0-.36-.6l-.15-.15v0l0,0h0a10.51,10.51,0,0,1-2-4.09l0-.14c-.27-.92-1.09-3.73,0-5.08l0,0,0-.06,0-.06.19-.18a1.35,1.35,0,0,0,.39-1.17l-.06-.37a26.06,26.06,0,0,1-.34-4.22c2.21-.21,5.33-.59,9.12-1.27,6.54-1.18,10.2-3.12,12-4.32a12.52,12.52,0,0,0,5.39,4.24,22.77,22.77,0,0,0,3,1,14.42,14.42,0,0,1-.21,4.45l0,.24a1.28,1.28,0,0,0,.13.86l.11.2a2.64,2.64,0,0,0,.47.67C87,58.45,86.55,60.49,86,62.32ZM93.25,57c-2,4.41-2.29,7.41-2.18,9.15h-3.6l0-.09a1.51,1.51,0,0,0,.09-.18c.07-.14.13-.28.19-.42s.19-.46.28-.68a0,0,0,0,1,0,0c0-.11.08-.22.11-.33s.07-.21.11-.31c.12-.4.22-.76.3-1.07.71-2.49,1.2-5.33-.46-7.5l-.07-.08c.1-.61.18-1.19.22-1.74a16.22,16.22,0,0,0,.06-2.18,11.82,11.82,0,0,0-.27-2.1,1.3,1.3,0,0,0-1-1,21.14,21.14,0,0,1-3.45-1.08A9.23,9.23,0,0,1,78.79,43a1.32,1.32,0,0,0-2.2-.39s-3,3-11.83,4.59c-4.41.8-7.89,1.18-10,1.35a1.35,1.35,0,0,0-1.22,1.23,25.62,25.62,0,0,0,.28,5.67l-.07.11c-1.73,2.18-1.09,5.3-.46,7.45l0,.14v.06q.09.3.21.66a.88.88,0,0,0,0,.15c.08.23.16.47.25.71,0,.09.07.17.1.25.14.35.3.72.48,1.09a.08.08,0,0,0,0,0H50.64a23.89,23.89,0,0,0-2-9.11c-1.72-4.15-1.64-9.48.22-14.63S54.2,33,58.32,31c5.31-2.64,12.15-.56,12.22-.54a1.33,1.33,0,0,0,.79,0c.07,0,6.92-2.1,12.22.54C92.24,35.28,97.13,48.42,93.25,57Z"/><path d="M124.91,102.45a1.27,1.27,0,0,0-.06-.28.3.3,0,0,0,0-.1,1.33,1.33,0,0,0-.28-.43l-11-11a1.32,1.32,0,0,0-.42-.29l-.1,0h0l-.09,0-.18,0H91a1.33,1.33,0,0,0-1.33,1.33v40.09A1.33,1.33,0,0,0,91,133.05h32.56a1.33,1.33,0,0,0,1.34-1.33V102.58S124.91,102.49,124.91,102.45Zm-11-7.6,6.4,6.4H114Zm8.29,35.54H92.36V93H111.3v9.62a1.33,1.33,0,0,0,1.33,1.34h9.62Z"/><path d="M114.92,116.17H99.69a1.33,1.33,0,0,1,0-2.66h15.23a1.33,1.33,0,1,1,0,2.66Z"/><path d="M114.92,123.17H99.69a1.33,1.33,0,0,1,0-2.66h15.23a1.33,1.33,0,1,1,0,2.66Z"/></svg>