<?xml version="1.0" encoding="utf-8"?>
<!-- Generator: Adobe Illustrator 23.0.4, SVG Export Plug-In . SVG Version: 6.00 Build 0)  -->
<svg version="1.1" id="Ebene_1" xmlns="http://www.w3.org/2000/svg" xmlns:xlink="http://www.w3.org/1999/xlink" x="0px" y="0px"
	 viewBox="0 0 160 160" style="enable-background:new 0 0 160 160;" xml:space="preserve">
<title>Element 2</title>
<g>
	<g id="Ebene_1-2">
		<path d="M121.7,77.5L121.7,77.5v-0.2l0,0l0,0l0,0v-0.1l-11-29.4l5.1-0.9c0.7-0.1,1.2-0.8,1.1-1.5s-0.8-1.2-1.5-1.1l0,0l-6.2,1.1
			l-1,0.2l0,0l-26.7,4.7v-3.5c0-0.7-0.6-1.3-1.3-1.3s-1.3,0.6-1.3,1.3l0,0v4l-34.6,6.1c-0.7,0.2-1.2,0.9-1,1.6c0.1,0.6,0.6,1,1.2,1
			h0.2l4.5-0.8L38.5,87.4v0.1l0,0v0.1v0.1v0.1l0,0V88c0,7.1,5.7,12.8,12.8,12.8S64.1,95.1,64.1,88v-0.1v-0.1v-0.1v-0.1l0,0l0,0
			L53,58l25.8-4.5v59.6H62.7c-0.7,0.1-1.3,0.7-1.2,1.5c0.1,0.6,0.6,1.2,1.2,1.2h34.7c0.7,0.1,1.4-0.5,1.5-1.2s-0.5-1.4-1.2-1.5
			c-0.1,0-0.2,0-0.2,0H81.4V53l25.3-4.5L96.1,77.2l0,0l0,0l0,0v0.1v0.1v0.1v0.1c0,7.1,5.7,12.8,12.8,12.8S121.7,84.7,121.7,77.5
			L121.7,77.5L121.7,77.5z M51.2,98.1c-5.1,0-9.4-3.8-10.1-8.8h20.1C60.6,94.3,56.3,98.1,51.2,98.1z M60.7,86.6H41.6l9.6-25.8
			L60.7,86.6z M108.8,50.5l9.6,25.8H99.3L108.8,50.5z M108.8,87.8c-5.1,0-9.4-3.8-10.1-8.8h20.1C118.2,84,113.9,87.8,108.8,87.8
			L108.8,87.8z"/>
	</g>
</g>
</svg>
