<svg id="Ebene_1" data-name="Ebene 1" xmlns="http://www.w3.org/2000/svg" viewBox="0 0 160 160"><title>12_Steuern-Zoll</title><path d="M72.25,94.75c.59,3.8,2.4,5.7,5.61,5.7,3.52,0,3.83-1.9,5-1.9a1.14,1.14,0,0,1,1.18,1.18v.07a2.23,2.23,0,0,1-1.21,1.8,9.27,9.27,0,0,1-5.11,1.31c-4.74,0-8-2.9-8.86-8.16H67.76a.91.91,0,0,1-1-1v0a.9.9,0,0,1,1-1h.93c0-.31,0-.62,0-.93s0-.69,0-1h-.93a.9.9,0,0,1-1-1v-.06a.9.9,0,0,1,1-1h1.15c1-5.14,4.49-8.07,9.11-8.07a9.27,9.27,0,0,1,4.48.93,2,2,0,0,1,1.22,1.69v.09a1.18,1.18,0,0,1-1.15,1.25c-1.13,0-1.5-1.5-4.43-1.5-3.15,0-5.17,1.93-5.83,5.61h6a.9.9,0,0,1,1,1v.06a.9.9,0,0,1-1,1H72.09s0,.31,0,.9,0,1.06,0,1.06h5.49a.91.91,0,0,1,1,1v0a.92.92,0,0,1-1,1Z"/><path d="M104.28,87.83a60.13,60.13,0,0,0-10-17.46A43.1,43.1,0,0,0,85,61.67a4.19,4.19,0,0,0,3.08-4V54.93a4.17,4.17,0,0,0-4.17-4.17H82l5.9-10.6a1.34,1.34,0,0,0-1.16-2H64.57a1.34,1.34,0,0,0-1.17,2l5.91,10.6H67.24a4.17,4.17,0,0,0-4.17,4.17v2.71a4.17,4.17,0,0,0,3.07,4c-4.47,2.94-9,7.7-13,13.68-5.24,7.92-8.37,16.51-8.39,23v5.42A9.53,9.53,0,0,0,49,121.82h39a1.34,1.34,0,0,0,0-2.67H49A6.86,6.86,0,0,1,46,106.1l.67-.33a1.32,1.32,0,0,0,.76-1.19V98.32c0-12.68,13.07-32.34,24.14-36.51h8c8.22,3.09,18,14.84,22.24,26.91a1.32,1.32,0,0,0,1.25.89,1.42,1.42,0,0,0,.45-.08A1.34,1.34,0,0,0,104.28,87.83Zm-37.45-47H84.51L79,50.76H72.36Zm.41,18.3a1.52,1.52,0,0,1-1.51-1.51V54.93a1.51,1.51,0,0,1,1.51-1.5H83.89a1.5,1.5,0,0,1,1.5,1.5v2.71a1.51,1.51,0,0,1-1.5,1.51Z"/><path d="M100.89,108.3c-3.06,0-5.8-2.11-5.8-6.39s2.74-6.29,5.8-6.29,5.76,2,5.76,6.29S103.91,108.3,100.89,108.3Zm0-2.18c1.65,0,2.81-1.4,2.81-4.14s-1.16-4.19-2.81-4.19S98.08,99.2,98.08,102,99.2,106.12,100.89,106.12Zm.17,14.7c-.45.7-.81.94-1.26.94h-.07c-.92,0-1.48-.94-.81-2l15.64-24.18c.42-.71.81-1,1.26-1h0c1,0,1.51,1,.84,2Zm13.75-.18c-3.1,0-5.8-2.11-5.8-6.4s2.7-6.29,5.8-6.29,5.76,2,5.76,6.29S117.83,120.64,114.81,120.64Zm0-2.18c1.65,0,2.81-1.41,2.81-4.15s-1.16-4.18-2.81-4.18-2.85,1.41-2.85,4.18S113.12,118.46,114.81,118.46Z"/></svg>