<svg id="Ebene_1" data-name="Ebene 1" xmlns="http://www.w3.org/2000/svg" viewBox="0 0 160 160"><title>13_Umwelt</title><path d="M124.18,100.87H96.61V85.57a15.46,15.46,0,0,0,14.3-15.15,16.49,16.49,0,0,0-.24-3,12.16,12.16,0,0,0-3.85-22.61l-.73-.09c.09-.33.15-.61.2-.89a12.16,12.16,0,0,0-24-4.13A12,12,0,0,0,82.15,42,12.14,12.14,0,0,0,75.3,59.62,12.16,12.16,0,0,0,82,77.68a15.43,15.43,0,0,0,11.83,7.83H94v15.35H72c1.12-.7,2.09-1.28,2.5-1.47l.1-.05a6.53,6.53,0,0,1,.7-.35,2.43,2.43,0,0,0,1.65-2c.08-.34.14-.65.21-.93a18.31,18.31,0,0,0,.53-3.39c.07-1,.08-1.89.09-2.81,0-.32,0-.65,0-1a2.52,2.52,0,0,0-1.33-2.3,6.94,6.94,0,0,1-1.14-.9c-.38-.36-.73-.75-1.11-1.16-.21-.24-.43-.47-.64-.69a36.08,36.08,0,0,0-3.74-3.47A3.33,3.33,0,0,0,67,79.7c-.88.17-1.76.31-2.49.42A26.77,26.77,0,0,0,55,83.19,10.32,10.32,0,0,0,52.69,85c-.73.75-1.35,1.43-1.88,2a28.45,28.45,0,0,0-4.2,6.22s0,0,0,0a8.37,8.37,0,0,0-.33.79,7.51,7.51,0,0,1-.3.69,2.19,2.19,0,0,0,.42,2.82l.22.24c.92,1,1.87,2,2.84,2.95l.14.13H35.94a1.34,1.34,0,0,0,0,2.67h88.24a1.34,1.34,0,0,0,0-2.67Zm-70.67,0a14.09,14.09,0,0,1-1.14-.85,11.7,11.7,0,0,0-1-1.18c-.94-.93-1.88-1.91-2.77-2.87l-.15-.16c.13-.27.24-.54.34-.8s.16-.43.25-.62a25.71,25.71,0,0,1,3.81-5.63c.51-.59,1.1-1.23,1.79-2a7.62,7.62,0,0,1,1.67-1.29,24.15,24.15,0,0,1,8.57-2.76c.78-.12,1.7-.26,2.65-.45a.67.67,0,0,1,.59.15h0a33.2,33.2,0,0,1,3.48,3.23l.62.66c.39.42.79.86,1.21,1.27a9.24,9.24,0,0,0,1.65,1.28h0c0,.32,0,.63,0,1,0,.91,0,1.78-.07,2.65a16,16,0,0,1-.48,3c-.07.3-.14.63-.23,1h0a8.57,8.57,0,0,0-1,.49c-1.23.59-5,3.06-6.25,3.86Zm40.58-18a12.77,12.77,0,0,1-9.75-6.52l-.24-.42a1.33,1.33,0,0,0-.78-.63l-.46-.14A9.49,9.49,0,0,1,77.59,61l.39-.61A1.34,1.34,0,0,0,78,59l-.37-.63a9.49,9.49,0,0,1,5.41-13.84l.85-.26a1.32,1.32,0,0,0,.94-1.31l0-.89a9.47,9.47,0,0,1,9.47-9.73,10.13,10.13,0,0,1,1.63.13,9.5,9.5,0,0,1,7.74,11c0,.24-.1.5-.19.85l-.34,1.35a1.34,1.34,0,0,0,1.17,1.65l1.4.13.69.08a9.49,9.49,0,0,1,3,17.67l0,0-.76.41a1.33,1.33,0,0,0-.67,1.42l.16.84a13.7,13.7,0,0,1,.22,2.54A12.8,12.8,0,0,1,96.34,82.92Z"/><path d="M113.13,119.77c-3.33,0-5-1.71-6.48-3.22-1.33-1.35-2.37-2.42-4.57-2.42s-3.25,1.07-4.57,2.42-3.15,3.22-6.48,3.22S86,118,84.56,116.55s-2.37-2.42-4.58-2.42-3.24,1.07-4.56,2.42-3.15,3.22-6.48,3.22-5.06-1.78-6.47-3.22-2.36-2.42-4.56-2.42-3.25,1.07-4.57,2.42-3.16,3.22-6.48,3.22-5.07-1.78-6.47-3.22-2.37-2.42-4.57-2.42a1.33,1.33,0,0,1,0-2.66c3.32,0,5.07,1.78,6.47,3.22s2.37,2.42,4.57,2.42,3.25-1.07,4.57-2.42,3.15-3.22,6.48-3.22,5.06,1.78,6.47,3.22,2.36,2.42,4.56,2.42,3.25-1.07,4.57-2.42,3.16-3.22,6.47-3.22,5,1.71,6.48,3.22c1.32,1.35,2.37,2.42,4.57,2.42s3.25-1.07,4.57-2.42,3.16-3.22,6.48-3.22,5,1.71,6.47,3.22c1.33,1.35,2.37,2.42,4.58,2.42s3.25-1.07,4.57-2.42c1.48-1.51,3.16-3.22,6.48-3.22a1.33,1.33,0,0,1,0,2.66c-2.2,0-3.25,1.07-4.57,2.42C118.13,118.06,116.45,119.77,113.13,119.77Z"/><path d="M91,130.35c-3.32,0-5.07-1.79-6.47-3.22s-2.37-2.42-4.58-2.42-3.24,1.07-4.56,2.42-3.15,3.22-6.48,3.22-5.06-1.79-6.47-3.22-2.36-2.42-4.56-2.42a1.33,1.33,0,1,1,0-2.66c3.32,0,5.06,1.78,6.47,3.22s2.36,2.42,4.56,2.42,3.25-1.07,4.57-2.43,3.16-3.21,6.47-3.21,5,1.71,6.48,3.21c1.32,1.36,2.37,2.43,4.57,2.43s3.25-1.07,4.57-2.43,3.16-3.21,6.48-3.21a1.33,1.33,0,1,1,0,2.66c-2.2,0-3.25,1.07-4.57,2.42S94.36,130.35,91,130.35Z"/></svg>