<svg id="Ebene_1" data-name="Ebene 1" xmlns="http://www.w3.org/2000/svg" viewBox="0 0 160 160"><title>14_Unternehmensfuehrung-Entwicklung</title><path d="M134.27,85.33h0l-.1-.08A.27.27,0,0,1,134.27,85.33Z"/><path d="M79.75,46.45a17.06,17.06,0,0,0-4.49-7.91,23.49,23.49,0,0,0-4.07-3.43A17.09,17.09,0,0,0,67.11,33a13.84,13.84,0,0,0-3.54-.72h0a14.3,14.3,0,0,1,3.53.72,17.28,17.28,0,0,1,4.08,2.08,23.49,23.49,0,0,1,4.07,3.43,17,17,0,0,1,4.48,7.91A13.6,13.6,0,0,1,80,48a.09.09,0,0,0,0,0A14,14,0,0,0,79.75,46.45Zm-17-16.75.64-.05h0Z"/><path d="M82.33,45.82a19.55,19.55,0,0,0-5.14-9.13,26.74,26.74,0,0,0-4.5-3.79A19.78,19.78,0,0,0,68,30.51a16.86,16.86,0,0,0-4.36-.87h0a16.86,16.86,0,0,1,4.36.87,19.71,19.71,0,0,1,4.71,2.39,26,26,0,0,1,4.5,3.79,18.94,18.94,0,0,1,5.26,17.39s0,0,0,0A19.5,19.5,0,0,0,82.33,45.82ZM63.06,32.35l.5,0h0Z"/><path d="M82.6,54.29l-.12-.14,0,0s0,0,0,0a18.94,18.94,0,0,0-5.26-17.39,26,26,0,0,0-4.5-3.79A19.71,19.71,0,0,0,68,30.51a16.86,16.86,0,0,0-4.36-.87h-.21l-.64.05h-1c-.42,0-.83,0-1.24,0a17.66,17.66,0,0,0-7.91,2.34A14.64,14.64,0,0,0,48,36a9.72,9.72,0,0,0-3.8,2.89c-2.56,3.25-3.35,8.37-2.36,15.2l0,0,0,.06-.08.13c-2,2.6-1.25,6.4-.51,9.05l.05.17c.47,1.58,1.35,4.5,3.16,6.37C45.7,74.8,49.77,81.37,57,84a14.35,14.35,0,0,0,5.21.89,15.41,15.41,0,0,0,5.1-.88c7.19-2.47,11.27-9.12,12.61-14.1,1.87-1.85,2.81-4.88,3.22-6.57C83.91,60.32,84.5,56.87,82.6,54.29ZM61.79,32.38c.38,0,.81,0,1.27,0l.48,0h0a13.84,13.84,0,0,1,3.54.72,17.09,17.09,0,0,1,4.08,2.08,23.49,23.49,0,0,1,4.07,3.43,17.06,17.06,0,0,1,4.49,7.91,14,14,0,0,1,.3,1.62.09.09,0,0,1,0,0c-1.52-2.56-3.89-5-7.47-5.07h-.47a17.76,17.76,0,0,0-4.56.64,15,15,0,0,1-5.54.5,10.66,10.66,0,0,1-3.22-.59c-1-.39-1.92-.63-6.2-.63a9.59,9.59,0,0,0-8.43,4.53,12,12,0,0,1,2.16-6.84,7.06,7.06,0,0,1,2.85-2.13l.24-.1a1.32,1.32,0,0,0,.55-.44l.15-.21A12,12,0,0,1,54,34.41a15.09,15.09,0,0,1,6.76-2C61.08,32.39,61.43,32.38,61.79,32.38ZM80.51,62.66a0,0,0,0,1,0,0,.06.06,0,0,1,0,0,11.31,11.31,0,0,1-2.55,5.35l-.19.18a1.31,1.31,0,0,0-.37.63l-.06.25c-1.14,4.36-4.68,10.21-10.93,12.37a13.1,13.1,0,0,1-4.23.72,11.88,11.88,0,0,1-4.27-.71c-6.29-2.32-9.84-8.12-11-12.38l-.06-.25a1.31,1.31,0,0,0-.35-.6l-.18-.18c-1.39-1.39-2.15-4-2.56-5.32l-.05-.15c-.34-1.21-1.36-4.86.08-6.7l.05-.07.09-.12.24-.25a1.29,1.29,0,0,0,.37-1.13l0-.22c.07-.75,1-8.62,8-8.62,4,0,4.61.21,5.28.46a13,13,0,0,0,3.9.75,17.38,17.38,0,0,0,6.41-.57,14.78,14.78,0,0,1,4.33-.56c4.93.13,6.9,7.44,7.22,8.75a1.19,1.19,0,0,0,.13.53l.14.28a3.34,3.34,0,0,0,.53.76C81.67,57.6,81.16,60.27,80.51,62.66Z"/><path d="M91,91.31A1.35,1.35,0,0,1,89.13,91a24.37,24.37,0,0,0-8-7.43l-.33-.21c-1.08,1.54-3.26,4.78-5.24,7.71-1.82,2.71-3.71,5.51-5.18,7.65-.8,1.16-1.4,2-1.83,2.62-.79,1.09-1.23,1.69-2.15,1.49a1.36,1.36,0,0,1-1-1.06A80.75,80.75,0,0,1,64,93.49a1.15,1.15,0,0,1,0-.19h0v0a.19.19,0,0,1,0-.08l.62-3.39H60.39L61,93.18a.19.19,0,0,1,0,.08v0h0c.07.64-.23,2.22-1.43,8.44a1.34,1.34,0,0,1-1,1.06c-.92.2-1.36-.4-2.15-1.49-.43-.6-1-1.46-1.83-2.62-1.47-2.14-3.36-4.94-5.18-7.65-2-2.94-4.16-6.17-5.24-7.71l-.33.21c-4.07,2.54-11.56,7.21-15.63,28.06l34.29-.1h0a1.33,1.33,0,0,1,0,2.66l-35.88.11h0a1.33,1.33,0,0,1-1.32-1.2,1.55,1.55,0,0,1,0-.48c4.22-23.27,12.93-28.7,17.12-31.31.5-.31.92-.58,1.26-.82a1.32,1.32,0,0,1,1-.24c.65.12.73.24,2.8,3.25,1.11,1.63,2.57,3.79,4.11,6.08C53.55,92.43,56,96,57.55,98.29c.41-2.19.76-4.11.83-4.67l-.9-4.92a1.32,1.32,0,0,1,1.31-1.57h7.42a1.32,1.32,0,0,1,1.31,1.57l-.9,4.92c.07.56.42,2.48.83,4.67,1.59-2.29,4-5.86,5.93-8.74,1.54-2.29,3-4.45,4.11-6.08,2.06-3,2.14-3.13,2.8-3.25a1.32,1.32,0,0,1,1,.24c.33.24.76.51,1.26.82a26.85,26.85,0,0,1,8.76,8.17A1.35,1.35,0,0,1,91,91.31Z"/><path d="M134.72,86.32v19.49a1.34,1.34,0,1,1-2.67,0V89.73L103.18,121a1.34,1.34,0,0,1-.93.42,1.3,1.3,0,0,1-1-.35L86,106.77,68.42,129.84a1.33,1.33,0,1,1-2.11-1.62L84.8,104a1.34,1.34,0,0,1,1-.52,1.31,1.31,0,0,1,1,.35l15.36,14.35L130,88.08,114.05,90a1.33,1.33,0,1,1-.31-2.64L133.23,85h0a1.62,1.62,0,0,1,.38,0h0l.23.06h0a.69.69,0,0,1,.19.1l.05,0,.08.06.1.08a.86.86,0,0,1,.13.14l.06.08.08.13a.54.54,0,0,1,.05.11,1,1,0,0,1,.08.24s0,.07,0,.11A1,1,0,0,1,134.72,86.32Z"/><path d="M133.63,85l-.19,0Z"/><path d="M133.44,85h0Z"/><path d="M133.63,85a1,1,0,0,1,.23.06Z"/><path d="M133.87,85.08a.58.58,0,0,1,.19.1A.69.69,0,0,0,133.87,85.08Z"/></svg>